<?xml version="1.0" encoding="utf-8"?>
<!-- Generator: Adobe Illustrator 24.2.0, SVG Export Plug-In . SVG Version: 6.00 Build 0)  -->
<svg version="1.1" id="Warstwa_1" xmlns="http://www.w3.org/2000/svg" xmlns:xlink="http://www.w3.org/1999/xlink" x="0px" y="0px"
	 viewBox="0 0 288 560" style="enable-background:new 0 0 288 560;" xml:space="preserve">
<style type="text/css">
	.st0{fill:#22205F;}
	.st1{clip-path:url(#SVGID_2_);fill:#0E1030;}
	.st2{fill:#CB1C68;}
	.st3{clip-path:url(#SVGID_4_);fill:#CB1C68;}
	.st4{fill:#0E1030;}
	.st5{fill:#EF6596;}
	.st6{display:none;fill:#363794;}
	.st7{display:none;}
	.st8{display:inline;fill:#FFFFFF;stroke:#9594C8;stroke-width:7;stroke-miterlimit:10;}
	.st9{display:inline;fill:none;stroke:#9594C8;stroke-width:7;stroke-miterlimit:10;}
	.st10{display:inline;}
	.st11{fill:#FFFFFF;stroke:#9594C8;stroke-width:7;stroke-miterlimit:10;}
	.st12{fill:none;}
	.st13{fill:#3C2E88;}
	.st14{font-family:'AmericanTypewriter-Bold';}
	.st15{font-size:30.477px;}
	.st16{display:none;fill:#9594C8;}
	.st17{fill:#9594C8;}
	.st18{display:inline;clip-path:url(#SVGID_6_);fill:#9594C8;}
	.st19{clip-path:url(#SVGID_8_);fill:#0E1030;}
	.st20{display:inline;fill:#363794;}
	.st21{clip-path:url(#SVGID_10_);fill:#0E1030;}
	.st22{fill:none;stroke:#9594C8;stroke-width:7;stroke-miterlimit:10;}
	.st23{font-size:31.5053px;}
	.st24{display:inline;fill:#9594C8;}
	.st25{clip-path:url(#SVGID_12_);fill:#9594C8;}
</style>
<g>
	<ellipse class="st0" cx="145.6" cy="270.9" rx="111.4" ry="108.9"/>
	<g>
		<defs>
			<ellipse id="SVGID_1_" cx="145.6" cy="270.9" rx="111.4" ry="108.9"/>
		</defs>
		<clipPath id="SVGID_2_">
			<use xlink:href="#SVGID_1_"  style="overflow:visible;"/>
		</clipPath>
		<polygon class="st1" points="319.2,474.8 135.2,359.7 149,189 333,304.1 		"/>
	</g>
	<rect x="135.7" y="189.6" class="st2" width="13.1" height="170"/>
	<path class="st2" d="M148.8,215.9c11.7,1.6,19.6,8.2,23.8,19.5h13.7c-5.3-19.4-17.3-30.7-37.5-32.2V215.9z"/>
	<path class="st2" d="M97,296h14.3c2.2,13.3,10.4,22.6,24.4,28v13.3C115.1,332.6,102.2,318.8,97,296z"/>
	<g>
		<defs>
			<rect id="SVGID_3_" x="98.2" y="175.9" width="37.5" height="125.4"/>
		</defs>
		<clipPath id="SVGID_4_">
			<use xlink:href="#SVGID_3_"  style="overflow:visible;"/>
		</clipPath>
		<circle class="st3" cx="255.5" cy="281.5" r="32.4"/>
	</g>
	<path class="st2" d="M148.8,263.3v74c16-1.4,27.7-6.8,33.9-17.5c8.6-12.1,8.1-24.2,0-36.3C173.6,273.7,162.1,267.2,148.8,263.3z"/>
	<path class="st4" d="M148.8,278.6c7.7,2.8,14.6,7,20.8,12.6c7.2,7.8,7.1,16,0,24.4c-4.5,4.9-11.8,7.6-20.8,9.1"/>
	<path class="st2" d="M136.3,277.2v-74c-16,1.4-27.7,6.8-33.9,17.5c-8.6,12.1-8.1,24.2,0,36.3C111.5,266.7,122.9,273.2,136.3,277.2z
		"/>
	<path class="st0" d="M136.4,262c-7.7-2.8-14.6-7-20.8-12.6c-7.2-7.8-7.1-16,0-24.4c4.5-4.9,11.8-7.6,20.8-9.1"/>
	<g>
		<rect x="144.6" y="189.4" class="st5" width="13.1" height="170"/>
		<path class="st5" d="M157.7,215.7c11.7,1.6,19.6,8.2,23.8,19.5h13.7c-5.3-19.4-17.3-30.7-37.5-32.2V215.7z"/>
		<path class="st5" d="M106,295.9h14.3c2.2,13.3,10.4,22.6,24.4,28v13.3C124,332.4,111.2,318.6,106,295.9z"/>
		<path class="st5" d="M157.7,263.1v74c16-1.4,27.7-6.8,33.9-17.5c8.6-12.1,8.1-24.2,0-36.3C182.5,273.6,171,267,157.7,263.1z"/>
		<path class="st4" d="M157.7,278.5c7.7,2.8,14.6,7,20.8,12.6c7.2,7.8,7.1,16,0,24.4c-4.5,4.9-11.8,7.6-20.8,9.1"/>
		<path class="st5" d="M145.2,277v-74c-16,1.4-27.7,6.8-33.9,17.5c-8.6,12.1-8.1,24.2,0,36.3C120.4,266.5,131.9,273,145.2,277z"/>
		<path class="st0" d="M145.3,261.8c-7.7-2.8-14.6-7-20.8-12.6c-7.2-7.8-7.1-16,0-24.4c4.5-4.9,11.8-7.6,20.8-9.1"/>
	</g>
</g>
<circle class="st6" cx="147.3" cy="378" r="117.7"/>
<g class="st7">
	<circle class="st8" cx="147.3" cy="378" r="76.5"/>
	<path class="st8" d="M89.2,329.6c35.7,31.8,87.7,31.7,116.2-0.3"/>
	<ellipse class="st8" cx="147.3" cy="378" rx="28.2" ry="76.5"/>
	<path class="st9" d="M205.4,428.3c-35.7-31.8-87.7-31.7-116.2,0.3"/>
	<line class="st8" x1="147.3" y1="301.5" x2="147.3" y2="454.5"/>
	<line class="st8" x1="70.8" y1="378" x2="223.8" y2="378"/>
	<g class="st10">
		<rect x="97.4" y="347.1" class="st11" width="105.7" height="31"/>
		<rect x="103.8" y="352.2" class="st12" width="96.8" height="25.8"/>
		<text transform="matrix(1 0 0 1 103.7607 372.7393)" class="st13 st14 st15">HELP</text>
	</g>
</g>
<polygon class="st16" points="181,399.9 192.6,461.5 240.1,420.7 "/>
<rect x="115.7" y="303.7" class="st17" width="2" height="2"/>
<g class="st7">
	<defs>
		<circle id="SVGID_5_" cx="147.3" cy="378" r="117.7"/>
	</defs>
	<clipPath id="SVGID_6_" class="st10">
		<use xlink:href="#SVGID_5_"  style="overflow:visible;"/>
	</clipPath>
	<path class="st18" d="M279.8,497.5l-17.3,14.9l-60-69.8c-2.8-3.2-2.4-8.1,0.8-10.9l5.6-4.8c3.2-2.8,8.1-2.4,10.9,0.8L279.8,497.5z"
		/>
</g>
<g>
	<defs>
		<ellipse id="SVGID_7_" cx="167.3" cy="648.4" rx="24.7" ry="47.6"/>
	</defs>
	<clipPath id="SVGID_8_">
		<use xlink:href="#SVGID_7_"  style="overflow:visible;"/>
	</clipPath>
	<polygon class="st19" points="238.1,550.3 203.4,577.8 208.7,642.1 243.4,614.6 	"/>
</g>
<g class="st7">
	<circle class="st20" cx="145.6" cy="418.3" r="121.7"/>
	<g class="st10">
		<defs>
			<circle id="SVGID_9_" cx="145.6" cy="418.3" r="121.7"/>
		</defs>
		<clipPath id="SVGID_10_">
			<use xlink:href="#SVGID_9_"  style="overflow:visible;"/>
		</clipPath>
		<polygon class="st21" points="323.4,574.8 126,500.1 174.8,339.2 372.2,413.8 		"/>
	</g>
	<g class="st10">
		<circle class="st11" cx="145.6" cy="418.3" r="79.1"/>
		<path class="st11" d="M85.5,368.3c36.9,32.9,90.7,32.8,120.2-0.3"/>
		<ellipse class="st11" cx="145.6" cy="418.3" rx="29.2" ry="79.1"/>
		<path class="st22" d="M205.7,470.3c-36.9-32.9-90.7-32.8-120.2,0.3"/>
		<line class="st11" x1="145.6" y1="339.2" x2="145.6" y2="497.4"/>
		<line class="st11" x1="66.5" y1="418.3" x2="224.7" y2="418.3"/>
		<g>
			<rect x="94" y="386.3" class="st11" width="109.2" height="32"/>
			<rect x="100.6" y="391.6" class="st12" width="100.1" height="26.7"/>
			<text transform="matrix(1 0 0 1 100.6089 412.8516)" class="st13 st14 st23">HELP</text>
		</g>
	</g>
	<polygon class="st24" points="180.4,441 192.4,504.6 241.5,462.4 	"/>
	<g class="st10">
		<defs>
			<circle id="SVGID_11_" cx="145.6" cy="418.3" r="121.7"/>
		</defs>
		<clipPath id="SVGID_12_">
			<use xlink:href="#SVGID_11_"  style="overflow:visible;"/>
		</clipPath>
		<path class="st25" d="M282.6,541.8l-17.9,15.4l-62.2-72.4c-2.8-3.2-2.4-8.1,0.8-10.9l6.2-5.3c3.2-2.8,8.1-2.4,10.9,0.8
			L282.6,541.8z"/>
	</g>
</g>
</svg>
