<?xml version="1.0" encoding="utf-8"?>
<!-- Generator: Adobe Illustrator 24.2.0, SVG Export Plug-In . SVG Version: 6.00 Build 0)  -->
<svg version="1.1" id="Warstwa_1" xmlns="http://www.w3.org/2000/svg" xmlns:xlink="http://www.w3.org/1999/xlink" x="0px" y="0px"
	 viewBox="0 0 288 560" style="enable-background:new 0 0 288 560;" xml:space="preserve">
<style type="text/css">
	.st0{fill:none;}
	.st1{display:none;}
	.st2{fill:#363794;}
	.st3{clip-path:url(#SVGID_2_);fill:#0E1030;}
	.st4{fill:#FFFFFF;stroke:#9594C8;stroke-width:7;stroke-miterlimit:10;}
	.st5{fill:none;stroke:#9594C8;stroke-width:7;stroke-miterlimit:10;}
	.st6{fill:#9594C8;}
	.st7{clip-path:url(#SVGID_4_);fill:#9594C8;}
	.st8{fill:#3C2E88;}
</style>
<rect x="61" y="483.7" class="st0" width="9" height="26.7"/>
<g class="st1">
</g>
<g>
	<circle class="st2" cx="149" cy="212.4" r="121.7"/>
	<g>
		<defs>
			<circle id="SVGID_1_" cx="149" cy="212.4" r="121.7"/>
		</defs>
		<clipPath id="SVGID_2_">
			<use xlink:href="#SVGID_1_"  style="overflow:visible;"/>
		</clipPath>
		<polygon class="st3" points="326.8,368.8 129.4,294.2 178.2,133.3 375.6,207.9 		"/>
	</g>
	<circle class="st4" cx="149" cy="212.4" r="79.1"/>
	<path class="st4" d="M88.9,162.3c36.9,32.9,90.7,32.8,120.2-0.3"/>
	<ellipse class="st4" cx="149" cy="212.4" rx="29.2" ry="79.1"/>
	<path class="st5" d="M209.1,264.4c-36.9-32.9-90.7-32.8-120.2,0.3"/>
	<line class="st4" x1="149" y1="133.3" x2="149" y2="291.5"/>
	<line class="st4" x1="69.9" y1="212.4" x2="228.1" y2="212.4"/>
	<polygon class="st6" points="183.8,235 195.8,298.7 244.9,256.5 	"/>
	<g>
		<defs>
			<circle id="SVGID_3_" cx="149" cy="212.4" r="121.7"/>
		</defs>
		<clipPath id="SVGID_4_">
			<use xlink:href="#SVGID_3_"  style="overflow:visible;"/>
		</clipPath>
		<path class="st7" d="M286,335.9l-17.9,15.4l-62.2-72.4c-2.8-3.2-2.4-8.1,0.8-10.9l6.2-5.3c3.2-2.8,8.1-2.4,10.9,0.8L286,335.9z"/>
	</g>
	<g>
		<rect x="92.4" y="195.4" class="st4" width="109.2" height="32"/>
		<g>
			<g>
				<path class="st8" d="M110.1,200.9c-2.8,0-5.5,0-8.3,0.1c-1,0-2,0.9-2,2c0,1.1,0.9,2,2,2c2.8,0,5.5,0,8.3-0.1c1,0,2-0.9,2-2
					C112.1,201.8,111.3,200.9,110.1,200.9z"/>
				<path class="st8" d="M108.2,204.8c-0.1-1-0.8-2.1-2-2c-1,0-2.1,0.9-2,2c0.4,4,0.4,8.1,0,12.1c-0.1,1,1,2,2,2
					c1.2-0.1,1.9-0.9,2-2C108.6,212.9,108.6,208.8,108.2,204.8z"/>
				<path class="st8" d="M106.9,215.2c0.4-3.7,0.5-7.3,0.2-11c-0.1-1.1-0.9-2-2-2c-1,0-2.1,0.9-2,2c0.2,3,0.2,5.9,0,8.9
					c-0.1,1.3-0.2,2.6-0.4,3.8c-0.1,0.3-0.1,0.6-0.2,0.8c0,0-0.1,0.1-0.1,0.2c0,0-0.1,0-0.1,0.1c0,0-0.3-0.1-0.4-0.1
					c-0.9-0.3-2,0.3-2.4,1.2c-0.4,0.9-0.1,2,0.8,2.5c2,1.2,4.7,0.8,6.2-0.9c0.7-0.8,0.8-1.9,0.1-2.7
					C106.7,216.9,106.8,216,106.9,215.2z"/>
				<path class="st8" d="M112,219.7c-0.2-1-0.9-1.7-2-1.7c-0.1,0-0.3,0-0.4,0c-0.2-0.4-0.1-1-0.1-1.4c0-1.3-0.1-2.7-0.1-4
					c0-2.8,0.1-5.6,0.3-8.4c0.1-1.1-1-2-2-2c-1.1,0-1.9,0.9-2,2c-0.2,3.5-0.3,7-0.2,10.6c0,1,0,2.1,0.1,3.1c-0.3,0-0.6,0-0.9,0
					c-1.1-0.1-2,1-2,2c0,1.1,0.9,1.9,2,2c1.3,0.1,2.5,0.1,3.8,0.2c0.7,0.2,1.4,0.3,2.2,0C111.5,221.6,112.1,220.8,112,219.7z"/>
			</g>
			<g>
				<path class="st8" d="M114.7,201.1c2.8,0,5.5,0,8.3,0.1c1,0,2,0.9,2,2c0,1.1-0.9,2-2,2c-2.8,0-5.5,0-8.3-0.1c-1,0-2-0.9-2-2
					C112.7,202,113.5,201.1,114.7,201.1z"/>
				<path class="st8" d="M116.6,205c0.1-1,0.8-2.1,2-2c1,0,2.1,0.9,2,2c-0.4,4-0.4,8.1,0,12.1c0.1,1-1,2-2,2c-1.2-0.1-1.9-0.9-2-2
					C116.2,213,116.2,209,116.6,205z"/>
				<path class="st8" d="M117.9,215.4c-0.4-3.7-0.5-7.3-0.2-11c0.1-1.1,0.9-2,2-2c1,0,2.1,0.9,2,2c-0.2,3-0.2,5.9,0,8.9
					c0.1,1.3,0.2,2.6,0.4,3.8c0.1,0.3,0.1,0.6,0.2,0.8c0,0,0.1,0.1,0.1,0.2c0,0,0.1,0,0.1,0.1c0,0,0.3-0.1,0.4-0.1
					c0.9-0.3,2,0.3,2.4,1.2c0.4,0.9,0.1,2-0.8,2.5c-2,1.2-4.7,0.8-6.2-0.9c-0.7-0.8-0.8-1.9-0.1-2.7
					C118.1,217.1,118,216.2,117.9,215.4z"/>
				<path class="st8" d="M114.3,222.1c0.7,0.3,1.5,0.2,2.2,0c1.3-0.1,2.5-0.1,3.8-0.2c1.1-0.1,2-0.9,2-2c0-1-0.9-2.1-2-2
					c-0.3,0-0.6,0-0.9,0c0.1-1,0.1-2.1,0.1-3.1c0.1-3.5,0-7-0.2-10.6c-0.1-1.1-0.9-2-2-2c-1,0-2.1,0.9-2,2c0.2,2.8,0.3,5.6,0.3,8.4
					c0,1.3,0,2.7-0.1,4c0,0.4,0,1-0.1,1.4c-0.1,0-0.3,0-0.4,0c-1,0-1.8,0.7-2,1.7C112.7,220.9,113.3,221.7,114.3,222.1z"/>
			</g>
			<rect x="107" y="209" class="st8" width="11" height="4"/>
			<path class="st8" d="M147.3,201.4c-1.2-1.1-3.1-0.7-4.6-0.7c-1.5,0-3.1,0.1-4.6,0.1c-3.1,0.1-6.3,0.2-9.4,0.2
				c-2.6,0.1-2.6,4.1,0,4c2.9-0.1,5.7-0.1,8.6-0.2c1.4,0,2.7-0.1,4.1-0.1c0.3,0,0.7,0,1,0c0.1,0.2,0.2,0.4,0.3,0.5
				c0.7,0.9,0.1,1.7,0.2,2.7c0.1,1.8,2,3.2,3.7,2.2c1.5-0.9,1.4-2.8,1.5-4.3C148.1,204.4,148.5,202.5,147.3,201.4z"/>
			<path class="st8" d="M136.2,212c-0.1-2.1,0-4.3,0.1-6.4c0.3-0.6,0.3-1.2,0-1.8c-0.2-0.8-1.1-1.5-1.9-1.5c-0.5,0-1,0.2-1.3,0.5
				c-0.1,0-0.2-0.1-0.3-0.1c-1-0.2-2.2,0.3-2.5,1.4c-0.1,0.7,0,1.3,0.2,1.9c0,2.4,0.1,4.8,0.2,7.2c0.1,1.3,0,2.7,0.3,4
				c0.4,1.6,2,2.7,3.6,2c1.5-0.6,1.9-2.1,1.8-3.6C136.3,214.5,136.2,213.2,136.2,212z"/>
			<path class="st8" d="M148.8,213.8c-0.9-2.7-4.6-3.2-5.8-0.4c-0.2,0.5-0.3,1.1-0.3,1.7c0,0.3,0.4,1.2,0.2,1.5
				c-0.1,0.4-1.2,0.4-1.5,0.5c-1.7,0.3-4.2,0.8-5.8-0.4c-0.9-0.7-2-0.8-2.8,0c-0.3,0.3-0.5,0.8-0.6,1.2l-3.7-0.1
				c-2.6-0.1-2.6,3.9,0,4c6,0.1,12,0.3,18,0.4c0.8,0,1.7-0.6,1.9-1.5C149,218.6,149.5,215.9,148.8,213.8z"/>
			<path class="st8" d="M134.5,213.7c0-0.3-0.1-0.5-0.2-0.7c-0.2-0.4-0.7-0.8-1.2-0.9c-0.5-0.1-1.1-0.1-1.5,0.2
				c-0.4,0.3-0.8,0.7-0.9,1.2c-0.2,1.6-0.5,3.2-0.7,4.7c-0.1,0.3-0.1,0.5,0,0.8c0,0.3,0.1,0.5,0.2,0.7c0.2,0.4,0.7,0.8,1.2,0.9
				c0.5,0.1,1.1,0.1,1.5-0.2c0.4-0.3,0.8-0.7,0.9-1.2c0.2-1.6,0.5-3.2,0.7-4.7C134.5,214.3,134.5,214,134.5,213.7z"/>
			<path class="st8" d="M141.8,207.7c0-0.5-0.3-1.1-0.6-1.4c-0.3-0.3-0.9-0.6-1.4-0.6c-0.5,0-1.1,0.2-1.4,0.6
				c-0.4,0.4-0.5,0.9-0.6,1.4c0,0.4-0.1,0.8-0.1,1.1c-0.4,0-0.8,0-1.1,0.1c-1,0.1-2.1,0.9-2,2c0,1,0.9,2.1,2,2l1.1-0.1
				c0,0.5,0,1,0.1,1.5c0,0.5,0.2,1,0.6,1.4c0.3,0.3,0.9,0.6,1.4,0.6c1,0,2.1-0.9,2-2C141.6,212.1,141.6,209.9,141.8,207.7z"/>
			<path class="st8" d="M163.3,201.1l-0.8-0.2c-0.4-0.1-0.9,0-1.3,0.1c-3,0-6.1,0-9.1,0c-1,0-2,0.9-2,2c0,1.1,0.9,2,2,2
				c3.6,0,7.1,0,10.7,0c1,0,1.8-0.8,2-1.7C164.9,202.4,164.3,201.3,163.3,201.1z"/>
			<path class="st8" d="M160,204.4c0.1-0.8-0.5-1.7-1.2-2c-0.7-0.3-1.6-0.2-2.2,0.4c-0.7-0.5-1.8-0.3-2.4,0.3c-0.8,0.8-0.7,2,0,2.8
				c0.1,0.1,0.1,0.1,0.1,0.2l0,4.8c-0.3,1-0.3,2-0.3,3c0,0.5,0,1,0,1.4c0,0.2,0,0.4,0,0.6c0,0,0,0.3,0,0.3c-0.1,0.3-0.1,0.7-0.3,1
				c0,0-0.1,0.2-0.1,0.2c0,0.1-0.1,0.1-0.1,0.1c0,0,0,0-0.1,0.1c-0.1,0.1-0.3,0.2-0.4,0.2c-0.1,0-0.2,0-0.2,0c-0.1,0-0.1,0-0.2,0
				c-0.2,0-0.3-0.1-0.5-0.1c-1-0.4-2.2,0.4-2.5,1.4c-0.3,1.1,0.4,2,1.4,2.5c0.9,0.4,1.7,0.4,2.5,0.2c2.6-0.4,4.8-2.7,5.6-5.2
				c0.6-1.7,0.6-3.6,0.7-5.4c0.1-2,0.2-4,0.2-5.9C160.2,205,160.1,204.7,160,204.4z"/>
			<path class="st8" d="M171.6,214.4c-0.6-1.9-2.6-3.4-4.6-2.3c-1.7,0.9-1.7,2.7-1.6,4.3c0,0.8-0.5,1.3-1.2,1.6c-0.3,0-0.7,0-1,0
				c-0.3,0-0.7,0-1,0c-0.5-0.2-0.9-0.5-1.2-0.9c-1.1-1.4-2-3.3-2.9-4.8c-1.3-2.2-4.8-0.2-3.5,2c0.7,1.2,1.4,2.4,2.2,3.7
				c-1.5,0-3,0-4.5,0c-2.6,0-2.6,4,0,4c3.2,0,6.3,0.1,9.5,0.1c0.9,0.2,1.9,0.2,2.8,0c2.8,0.1,6,0,7.1-3
				C172.2,217.6,172.1,215.8,171.6,214.4z"/>
			<path class="st8" d="M191.1,202.7c-1.9-1.9-4.8-2.1-7.3-2c-3.4,0.1-6.9,0.2-10.3,0.2c-2.6,0.1-2.6,4.1,0,4
				c3.2-0.1,6.4-0.1,9.6-0.2c1.2,0,2.5-0.1,3.6,0.1c0.9,0.2,1.7,0.6,2,1.3c0.3,0.6,0.3,1.6,0,2.2c-0.4,1-1.2,1.6-2.2,2.1
				c-2.4,1.2-5.4,0.7-7.9,0.3c-1.1-0.2-2.2,0.3-2.5,1.4c-0.3,0.9,0.3,2.3,1.4,2.5c2.9,0.4,6,0.9,8.9,0.1c2.5-0.7,4.8-2.4,5.9-4.8
				C193.3,207.5,193,204.6,191.1,202.7z"/>
			<path class="st8" d="M188.5,202c-0.5-0.4-1.3-0.4-1.9,0c-0.2-0.1-0.4-0.1-0.7-0.2c0,0,0,0,0,0c-1.7-0.8-3.6-1.1-5.4-0.2
				c-0.2,0.1-0.4,0.2-0.6,0.3c-0.4,0-0.8,0.1-1.1,0.3c-0.4-0.1-0.9-0.2-1.2-0.1c-0.9,0.3-1.4,1-1.5,1.9c-0.1,2.7-0.1,5.4-0.2,8.1
				c0,1.8,2.3,2.5,3.4,1.5c0.8,0.6,1.8,1,3,1.1c1.5,0.1,2.9-0.4,4.2-1.1c0.5,0.2,1.1,0.1,1.6-0.2c2-1.2,3.2-3.2,3.4-5.5
				C191.6,205.6,190.3,203.4,188.5,202z M184.9,209.9c-0.1,0.1-0.3,0.2-0.4,0.3c-0.1,0-0.2,0.1-0.3,0.2c-0.1,0-0.4,0.1-0.4,0.2
				c-0.2,0.1-0.4,0.1-0.6,0.2c-0.1,0-0.4,0-0.3,0.1c-0.2,0-0.4,0-0.6,0c0,0,0,0,0,0c-0.1,0-0.1,0-0.2,0c-0.1,0-0.1,0-0.2-0.1
				c0,0,0,0,0,0c0,0,0,0,0,0c0.1-0.2,0.2-0.5,0.2-0.8c0-1.4-0.1-2.8-0.1-4.2c0,0,0,0,0-0.1c0,0,0,0,0,0c0,0,0.1-0.1,0.1-0.1
				c0,0,0.1-0.1,0.1-0.1c0,0,0.1-0.1,0.2-0.1c0.1,0,0.3-0.1,0.4-0.1c0,0,0,0,0.1,0c0.1,0,0.2,0,0.3,0c0,0,0,0,0.1,0
				c0.1,0,0.2,0,0.3,0.1c0.1,0,0.5,0.2,0.5,0.1c0.1,0,0.2,0.1,0.3,0.2c0.1,0.1,0.2,0.1,0.3,0.2c0.1,0.1,0.2,0.2,0.4,0.2c0,0,0,0,0,0
				c0,0,0,0,0,0c0.4,0.3,0.8,0.7,1.2,1.1c0.1,0.1,0.2,0.2,0.3,0.2c0,0,0,0.1,0,0.1c0,0.1,0,0.3,0,0.4c0,0,0,0,0,0.1c0,0,0,0,0,0
				c0,0.2-0.1,0.4-0.2,0.6c0,0,0,0,0,0c0,0,0,0.1-0.1,0.1c-0.1,0.1-0.2,0.3-0.3,0.4c0,0-0.1,0.1-0.1,0.1c-0.1,0.1-0.3,0.3-0.4,0.4
				c-0.1,0.1-0.3,0.2-0.4,0.3C185.3,209.6,185,209.8,184.9,209.9z"/>
			<path class="st8" d="M184.4,217.7l-10.7-0.1c-1,0-2,0.9-2,2c0,1.1,0.9,2,2,2l10.7,0.1c1,0,2-0.9,2-2
				C186.4,218.6,185.5,217.7,184.4,217.7z"/>
			<path class="st8" d="M181.9,217.3c-0.2-1.4-0.6-2.8-1.3-4.1c0,0,0-0.1,0-0.1c-0.1-1-0.7-1.8-1.7-2c0,0-0.1,0-0.1,0
				c-0.4-0.1-0.8-0.2-1.1,0c-0.9,0.3-1.4,1-1.5,1.9c0,0.6-0.1,1.2-0.1,1.8c-0.2,1.2-0.3,2.4-0.2,3.6c0,0.5,0.2,1,0.6,1.4
				c0.3,0.3,0.9,0.6,1.4,0.6c0.4,0,0.7-0.1,1-0.3c0,0,0.1,0,0.1,0c0.3,0,0.7-0.1,1-0.3c0.2,0,0.4,0,0.6-0.1c0.5-0.2,1-0.5,1.2-0.9
				c0.1-0.2,0.1-0.3,0.2-0.5C182,218,182,217.7,181.9,217.3z"/>
		</g>
	</g>
</g>
</svg>
