<?xml version="1.0" encoding="utf-8"?>
<!-- Generator: Adobe Illustrator 24.2.0, SVG Export Plug-In . SVG Version: 6.00 Build 0)  -->
<svg version="1.1" id="Warstwa_1" xmlns="http://www.w3.org/2000/svg" xmlns:xlink="http://www.w3.org/1999/xlink" x="0px" y="0px"
	 viewBox="0 0 2880 1800" style="enable-background:new 0 0 2880 1800;" xml:space="preserve">
<style type="text/css">
	.st0{fill:#3333CC;}
	.st1{clip-path:url(#SVGID_2_);fill:#000099;}
	.st2{fill:#FFFFFF;}
	.st3{fill:none;stroke:#3333CC;stroke-width:2;stroke-miterlimit:10;}
	.st4{display:none;}
	.st5{display:inline;fill:#3333CC;}
	.st6{display:inline;}
	.st7{clip-path:url(#SVGID_4_);fill:#000099;}
	.st8{display:inline;fill:none;stroke:#3333CC;stroke-width:2;stroke-miterlimit:10;}
	.st9{clip-path:url(#SVGID_6_);fill:none;stroke:#3333CC;stroke-width:2;stroke-miterlimit:10;}
	.st10{clip-path:url(#SVGID_8_);fill:#000099;}
</style>
<g>
	
		<ellipse transform="matrix(0.7071 -0.7071 0.7071 0.7071 -228.0739 968.6015)" class="st0" cx="1055.2" cy="759.6" rx="349.9" ry="349.8"/>
	<g>
		<g>
			<g>
				<defs>
					
						<ellipse id="SVGID_1_" transform="matrix(0.7071 -0.7071 0.7071 0.7071 -225.4065 967.4967)" cx="1055.2" cy="755.8" rx="349.9" ry="349.8"/>
				</defs>
				<clipPath id="SVGID_2_">
					<use xlink:href="#SVGID_1_"  style="overflow:visible;"/>
				</clipPath>
				<polygon class="st1" points="1289.7,1238.8 900.6,865.8 1216.5,657.7 1614.2,1025 				"/>
			</g>
		</g>
		<g>
			<g>
				<path class="st2" d="M906,653.6h301.8c6.2,0,11.3,5.1,11.3,11.3v191c0,6.2-5.1,11.3-11.3,11.3H906c-6.2,0-11.3-5.1-11.3-11.3
					v-191C894.7,658.6,899.8,653.6,906,653.6z"/>
			</g>
			<line class="st3" x1="1219" y1="653.6" x2="1056.8" y2="760.4"/>
			<line class="st3" x1="875.5" y1="641.3" x2="1061.1" y2="763.6"/>
		</g>
		<path class="st2" d="M1039.8,772.2l58.4-33.7c1-0.6,2.2-0.2,2.7,0.7l28.5,49.3c0.6,1,0.2,2.2-0.7,2.7l-58.4,33.7
			c-1,0.6-2.2,0.2-2.7-0.7l-28.5-49.3C1038.5,774,1038.9,772.8,1039.8,772.2z"/>
	</g>
</g>
<g class="st4">
	
		<ellipse transform="matrix(0.7071 -0.7071 0.7071 0.7071 319.9535 1823.2908)" class="st5" cx="2360.9" cy="525.4" rx="176.2" ry="176.2"/>
	<g class="st6">
		<g>
			<g>
				<g>
					<defs>
						
							<ellipse id="SVGID_3_" transform="matrix(0.7071 -0.7071 0.7071 0.7071 321.297 1822.7343)" cx="2360.9" cy="523.5" rx="176.2" ry="176.2"/>
					</defs>
					<clipPath id="SVGID_4_">
						<use xlink:href="#SVGID_3_"  style="overflow:visible;"/>
					</clipPath>
					<polygon class="st7" points="2479,766.8 2283,578.9 2442.1,474.1 2642.4,659.1 					"/>
				</g>
			</g>
		</g>
		<g>
			<g>
				<path class="st2" d="M2285.8,472h152c3.1,0,5.7,2.5,5.7,5.7v96.2c0,3.1-2.5,5.7-5.7,5.7h-152c-3.1,0-5.7-2.5-5.7-5.7v-96.2
					C2280.1,474.5,2282.6,472,2285.8,472z"/>
			</g>
			<line class="st3" x1="2443.4" y1="472" x2="2361.7" y2="525.8"/>
			<line class="st3" x1="2270.4" y1="465.8" x2="2363.9" y2="527.4"/>
		</g>
		<path class="st2" d="M2353.2,531.8l29.4-17c0.5-0.3,1.1-0.1,1.4,0.4l14.3,24.8c0.3,0.5,0.1,1.1-0.4,1.4l-29.4,17
			c-0.5,0.3-1.1,0.1-1.4-0.4l-14.3-24.8C2352.5,532.6,2352.7,532,2353.2,531.8z"/>
	</g>
</g>
<g class="st4">
	
		<ellipse transform="matrix(0.7071 -0.7071 0.7071 0.7071 238.2018 1529.9247)" class="st8" cx="1965.9" cy="477.4" rx="176.2" ry="176.2"/>
	<g class="st6">
		<g>
			<g>
				<g>
					<defs>
						
							<ellipse id="SVGID_5_" transform="matrix(0.7071 -0.7071 0.7071 0.7071 239.5453 1529.3682)" cx="1965.9" cy="475.5" rx="176.2" ry="176.2"/>
					</defs>
					<clipPath id="SVGID_6_">
						<use xlink:href="#SVGID_5_"  style="overflow:visible;"/>
					</clipPath>
					<polygon class="st9" points="2084,718.8 1888,530.9 2047.1,426.1 2247.4,611.1 					"/>
					<use xlink:href="#SVGID_5_"  style="overflow:visible;fill:none;stroke:#3333CC;stroke-width:2;stroke-miterlimit:10;"/>
				</g>
			</g>
		</g>
		<g>
			<g>
				<path class="st3" d="M1890.8,424h152c3.1,0,5.7,2.5,5.7,5.7v96.2c0,3.1-2.5,5.7-5.7,5.7h-152c-3.1,0-5.7-2.5-5.7-5.7v-96.2
					C1885.1,426.5,1887.6,424,1890.8,424z"/>
			</g>
			<line class="st3" x1="2048.4" y1="424" x2="1966.7" y2="477.8"/>
			<line class="st3" x1="1875.4" y1="417.8" x2="1968.9" y2="479.4"/>
		</g>
		<path class="st3" d="M1958.2,483.8l29.4-17c0.5-0.3,1.1-0.1,1.4,0.4l14.3,24.8c0.3,0.5,0.1,1.1-0.4,1.4l-29.4,17
			c-0.5,0.3-1.1,0.1-1.4-0.4l-14.3-24.8C1957.5,484.6,1957.7,484,1958.2,483.8z"/>
	</g>
</g>
<g>
	<g>
		
			<ellipse transform="matrix(0.7071 -0.7071 0.7071 0.7071 -14.3203 1531.5732)" class="st0" cx="1841.6" cy="783.1" rx="353.9" ry="353.9"/>
		<g>
			<g>
				<g>
					<g>
						<defs>
							
								<ellipse id="SVGID_7_" transform="matrix(0.7071 -0.7071 0.7071 0.7071 -11.6216 1530.4554)" cx="1841.6" cy="779.3" rx="353.9" ry="353.9"/>
						</defs>
						<clipPath id="SVGID_8_">
							<use xlink:href="#SVGID_7_"  style="overflow:visible;"/>
						</clipPath>
						<polygon class="st10" points="2078.9,1267.9 1685.2,890.5 2004.8,680 2407.1,1051.6 						"/>
					</g>
				</g>
			</g>
			<g>
				<g>
					<path class="st2" d="M1690.8,675.8h305.3c6.2,0,11.4,5,11.4,11.4v193.2c0,6.2-5,11.4-11.4,11.4h-305.3c-6.2,0-11.4-5-11.4-11.4
						V687.2C1679.3,680.8,1684.4,675.8,1690.8,675.8z"/>
				</g>
				<line class="st3" x1="2007.4" y1="675.8" x2="1843.3" y2="783.9"/>
				<line class="st3" x1="1659.9" y1="663.3" x2="1847.7" y2="787.1"/>
			</g>
			<path class="st2" d="M1825.6,794.3l60.2-32c1-0.6,2.2-0.1,2.8,0.9l26.9,50.8c0.6,1,0.1,2.2-0.9,2.8l-60.2,32
				c-1,0.6-2.2,0.1-2.8-0.9l-26.9-50.8C1824.1,795.9,1824.5,794.7,1825.6,794.3z"/>
		</g>
	</g>
	<line class="st3" x1="1679.1" y1="888.7" x2="1811" y2="762"/>
	<line class="st3" x1="2004.6" y1="888.7" x2="1876" y2="762"/>
</g>
</svg>
