<?xml version="1.0" encoding="utf-8"?>
<!-- Generator: Adobe Illustrator 24.2.0, SVG Export Plug-In . SVG Version: 6.00 Build 0)  -->
<svg version="1.1" id="Warstwa_1" xmlns="http://www.w3.org/2000/svg" xmlns:xlink="http://www.w3.org/1999/xlink" x="0px" y="0px"
	 viewBox="0 0 285.2 285.2" style="enable-background:new 0 0 285.2 285.2;" xml:space="preserve">
<style type="text/css">
	.st0{fill:#FFFFFF;stroke:#9594C8;stroke-width:20;stroke-miterlimit:10;}
	.st1{fill:#CA268F;}
	.st2{fill:#363794;}
	.st3{fill:#CDCAE5;}
	.st4{fill:#EF6596;}
	.st5{display:none;fill:#EF6596;}
</style>
<g>
	<path class="st0" d="M204.5,256.7H80.6c-16.3,0-29.5-13.2-29.5-29.5V57.6c0-16.3,13.2-29.5,29.5-29.5h123.9
		c16.3,0,29.5,13.2,29.5,29.5v169.7C234,243.5,220.8,256.7,204.5,256.7z"/>
	<g>
		<g>
			<path class="st1" d="M76.5,50.2h-7c-2.9,0-2.9,4.4,0,4.4h7C79.4,54.6,79.4,50.2,76.5,50.2z"/>
			<path class="st1" d="M74.7,52.4c-0.3,24.4-0.6,48.7-0.9,73.1c0,2.9,4.4,2.9,4.4,0c0.3-24.4,0.6-48.7,0.9-73.1
				C79.2,49.6,74.8,49.6,74.7,52.4z"/>
			<path class="st1" d="M76.3,123.7c-2.4-0.1-4.8-0.1-7.2-0.2c-2.9-0.1-2.9,4.4,0,4.4c2.4,0.1,4.8,0.1,7.2,0.2
				C79.2,128.3,79.2,123.8,76.3,123.7z"/>
			<path class="st1" d="M90,52.9v72.2c0,2.9,4.4,2.9,4.4,0V52.9C94.4,50,90,50,90,52.9z"/>
			<path class="st1" d="M118.5,86.9H99.6c-2.9,0-2.9,4.4,0,4.4h18.9C121.4,91.4,121.4,86.9,118.5,86.9z"/>
			<path class="st1" d="M115.3,55c0,22.5,0,44.9-0.1,67.4c0,2.9,4.4,2.9,4.4,0c0-22.5,0-44.9,0.1-67.4
				C119.7,52.2,115.3,52.2,115.3,55z"/>
			<path class="st1" d="M117.6,52c-8.1-1.4-16.3-1.9-24.5-1.3c-2.8,0.2-2.9,4.7,0,4.4c7.8-0.6,15.6-0.2,23.4,1.1
				C119.2,56.8,120.4,52.5,117.6,52z"/>
			<path class="st1" d="M132.3,68.9c-0.6-8.5-6.6-16-15.4-16.8c-2.8-0.3-2.8,4.2,0,4.4c7,0.7,11.1,7.6,11,14.1
				c-0.2,7.4-4.9,13.5-10.4,18c-2.2,1.8,0.9,4.9,3.1,3.1C127.5,86.2,132.9,78.1,132.3,68.9z"/>
			<path class="st1" d="M117.2,123.2H92c-2.9,0-2.9,4.4,0,4.4h25.2C120.1,127.6,120.1,123.2,117.2,123.2z"/>
			<path class="st1" d="M119.3,88.5c-2.8-0.8-3.9,3.5-1.2,4.3c6.6,1.9,11.5,8.4,11.4,15.3c-0.1,6.9-5.3,13.2-11.9,15
				c-2.8,0.7-1.6,5,1.2,4.3c8.5-2.3,15-10.4,15.1-19.3C134.1,99.2,127.8,91,119.3,88.5z"/>
		</g>
		<g>
			<path class="st2" d="M156.6,50.1h-8c-2.9,0-2.9,4.4,0,4.4h8C159.4,54.5,159.4,50.1,156.6,50.1z"/>
			<path class="st2" d="M177.2,85.4c-6.2-11.4-12.4-22.7-18.5-34.1c-1.4-2.5-5.2-0.3-3.8,2.2c6.2,11.4,12.4,22.7,18.5,34.1
				C174.8,90.2,178.6,87.9,177.2,85.4z"/>
			<path class="st2" d="M172.8,87.8v37.4c0,2.9,4.4,2.9,4.4,0V87.8C177.3,84.9,172.8,84.9,172.8,87.8z"/>
			<path class="st2" d="M175,123.7h-8c-2.9,0-2.9,4.4,0,4.4h8C177.9,128.1,177.9,123.7,175,123.7z"/>
			<path class="st2" d="M176.9,50.1h-4.7c-2.9,0-2.9,4.4,0,4.4h4.7C179.7,54.5,179.8,50.1,176.9,50.1z"/>
			<path class="st2" d="M190,81.9c-5-9.6-10.6-20.3-15.6-29.9c-1.3-2.5-5.2-0.3-3.8,2.2c5,9.6,10.6,20.3,15.6,29.9
				C187.5,86.7,191.3,84.5,190,81.9z"/>
			<path class="st2" d="M216.1,50.7c-4.1-0.1-8.2-0.2-12.3-0.4c-2.9-0.1-2.9,4.4,0,4.4c4.1,0.1,8.2,0.2,12.3,0.4
				C218.9,55.2,218.9,50.7,216.1,50.7z"/>
			<path class="st2" d="M207.7,52.4c-6.4,9.6-12.8,19.3-19.2,28.9c-1.6,2.4,2.3,4.6,3.8,2.2c6.4-9.6,12.8-19.3,19.2-28.9
				C213.1,52.2,209.3,50,207.7,52.4z"/>
			<path class="st2" d="M187,83.4v41.4c0,2.9,4.4,2.9,4.4,0V83.4C191.4,80.5,187,80.5,187,83.4z"/>
			<path class="st2" d="M197.2,123h-8c-2.9,0-2.9,4.4,0,4.4h8C200,127.4,200,123,197.2,123z"/>
		</g>
		<g>
			<path class="st3" d="M158.4,142.4h-6.8c-2.9,0-2.9,4.4,0,4.4h6.8C161.2,146.9,161.2,142.4,158.4,142.4z"/>
			<path class="st3" d="M158.1,215.4h-7.3c-2.9,0-2.9,4.4,0,4.4h7.3C161,219.9,161,215.4,158.1,215.4z"/>
			<path class="st3" d="M156.4,144.9v72.5c0,2.9,4.4,2.9,4.4,0v-72.5C160.8,142,156.4,142,156.4,144.9z"/>
			<path class="st3" d="M193.1,168.2v26.9c0,2.9,4.4,2.9,4.4,0v-26.9C197.5,165.3,193.1,165.3,193.1,168.2z"/>
			<path class="st3" d="M194.2,179.2h-20.3c-2.9,0-2.9,4.4,0,4.4h20.3C197,183.6,197,179.2,194.2,179.2z"/>
			<path class="st3" d="M208.2,144.8v20.1c0,2.9,4.4,2.9,4.4,0v-20.1C212.7,141.9,208.2,141.9,208.2,144.8z"/>
			<path class="st3" d="M207.2,196.9v21c0,2.9,4.4,2.9,4.4,0v-21C211.6,194,207.2,194,207.2,196.9z"/>
			<path class="st3" d="M208.9,215.7H171c-2.9,0-2.9,4.4,0,4.4h37.9C211.8,220.1,211.8,215.7,208.9,215.7z"/>
			<path class="st3" d="M168.9,179.3V217c0,2.9,4.4,2.9,4.4,0v-37.6C173.3,176.5,168.9,176.5,168.9,179.3z"/>
			<path class="st3" d="M168.9,144.9V179c0,2.9,4.4,2.9,4.4,0v-34C173.3,142.1,168.9,142,168.9,144.9z"/>
			<path class="st3" d="M210.4,142.5h-39.2c-2.9,0-2.9,4.4,0,4.4h39.2C213.2,146.9,213.2,142.5,210.4,142.5z"/>
		</g>
		<g>
			<g>
				<g>
					<path class="st4" d="M81.1,143.3h-6.7c-2.9,0-2.9,4.4,0,4.4h6.7C83.9,147.8,83.9,143.3,81.1,143.3z"/>
					<path class="st4" d="M79,145.7v73c0,2.9,4.4,2.9,4.4,0v-73C83.5,142.8,79,142.8,79,145.7z"/>
					<path class="st4" d="M81,216.8c-2.6-0.1-5.1-0.1-7.7-0.2c-2.9-0.1-2.9,4.4,0,4.4c2.6,0.1,5.1,0.1,7.7,0.2
						C83.9,221.4,83.9,216.9,81,216.8z"/>
					<path class="st4" d="M94,145.3v73c0,2.9,4.4,2.9,4.4,0v-73C98.4,142.4,94,142.4,94,145.3z"/>
					<path class="st4" d="M126.5,151.6c-8.7-6.1-19.3-9.1-29.9-8.6c-2.8,0.1-2.9,4.6,0,4.4c9.9-0.5,19.6,2.3,27.7,8
						C126.6,157.1,128.8,153.2,126.5,151.6z"/>
					<path class="st5" d="M130.6,235.1c-8.9,4.4-18.3,7.7-28.2,7.6c-2.9,0-2.5,5,0.3,4.8c10.7-0.7,20.3-4,30.5-8.2
						C135.7,238.3,133.2,233.8,130.6,235.1z"/>
					<path class="st4" d="M123.1,153.6v56.5c0,2.9,4.4,2.9,4.4,0v-56.5C127.6,150.7,123.1,150.7,123.1,153.6z"/>
					<path class="st4" d="M139.8,181.3c-0.5-11.7-5.8-25.9-15.2-30.8c-2.5-1.3-3.2,0.8-1.2,2.8c7.2,7.3,11.3,17.2,11.8,27.5
						c0.3,5.5-0.5,11.1-2.3,16.3c-1.6,4.7-4.4,8.8-8.5,11.8c-2.3,1.7-0.7,4.8,1.9,3.4C136.2,207,140.2,192.6,139.8,181.3z"/>
				</g>
				<path class="st4" d="M126.6,212.1c-8.7,6.1-19.3,9.1-29.9,8.6c-2.8-0.1-2.9-4.6,0-4.4c9.9,0.5,19.6-2.3,27.7-8
					C126.7,206.6,128.9,210.4,126.6,212.1z"/>
			</g>
		</g>
	</g>
</g>
</svg>
