<?xml version="1.0" encoding="utf-8"?>
<!-- Generator: Adobe Illustrator 24.2.0, SVG Export Plug-In . SVG Version: 6.00 Build 0)  -->
<svg version="1.1" id="Warstwa_1" xmlns="http://www.w3.org/2000/svg" xmlns:xlink="http://www.w3.org/1999/xlink" x="0px" y="0px"
	 viewBox="0 0 2560 1600" style="enable-background:new 0 0 2560 1600;" xml:space="preserve">
<style type="text/css">
	.st0{display:none;}
	.st1{display:inline;fill:#363794;}
	.st2{display:inline;}
	.st3{fill:#FFFFFF;stroke:#9594C8;stroke-width:7;stroke-miterlimit:10;}
	.st4{fill:none;stroke:#9594C8;stroke-width:7;stroke-miterlimit:10;}
	.st5{fill:none;}
	.st6{fill:#3C2E88;}
	.st7{font-family:'AmericanTypewriter-Bold';}
	.st8{font-size:93.7639px;}
	.st9{display:inline;fill:#9594C8;}
	.st10{clip-path:url(#SVGID_2_);fill:#9594C8;}
	.st11{clip-path:url(#SVGID_4_);fill:#0E1030;}
	.st12{fill:#363794;}
	.st13{clip-path:url(#SVGID_6_);fill:#333366;}
	.st14{fill:#90278E;}
	.st15{clip-path:url(#SVGID_8_);}
	.st16{fill:#CA3593;}
	.st17{fill:#B76BAB;}
	.st18{opacity:0.5;fill:#FFFFFF;enable-background:new    ;}
</style>
<g class="st0">
	<circle class="st1" cx="745.85" cy="765.53" r="362.15"/>
	<g class="st2">
		<circle class="st3" cx="745.85" cy="765.53" r="235.4"/>
		<path class="st3" d="M567.06,616.55c109.91,97.97,269.85,97.59,357.6-0.84"/>
		<ellipse class="st3" cx="745.85" cy="765.53" rx="86.87" ry="235.4"/>
		<path class="st4" d="M924.66,920.23c-109.91-97.97-269.85-97.59-357.6,0.84"/>
		<line class="st4" x1="745.85" y1="530.13" x2="745.85" y2="1000.93"/>
		<line class="st4" x1="510.45" y1="765.53" x2="981.25" y2="765.53"/>
		<g>
			<rect x="592.43" y="670.3" class="st3" width="325.06" height="95.23"/>
			<rect x="611.95" y="686.17" class="st5" width="297.88" height="79.36"/>
			<text transform="matrix(1 0 0 1 611.9448 749.2695)" class="st6 st7 st8">HELP</text>
		</g>
	</g>
	<polygon class="st9" points="849.45,832.96 885.18,1022.39 1031.37,896.74 	"/>
	<rect x="648.6" y="536.74" class="st9" width="6.21" height="6.21"/>
	<g class="st2">
		<g>
			<defs>
				<circle id="SVGID_1_" cx="745.85" cy="765.53" r="362.15"/>
			</defs>
			<clipPath id="SVGID_2_">
				<use xlink:href="#SVGID_1_"  style="overflow:visible;"/>
			</clipPath>
			<path class="st10" d="M1153.65,1133l-53.3,45.79L910.27,957.62c-5.55-6.45-4.81-16.19,1.64-21.74l29.9-25.71
				c6.45-5.55,16.19-4.81,21.74,1.64L1153.65,1133z"/>
		</g>
	</g>
	<g class="st2">
		<g>
			<defs>
				<circle id="SVGID_3_" cx="745.85" cy="765.53" r="362.15"/>
			</defs>
			<clipPath id="SVGID_4_">
				<use xlink:href="#SVGID_3_"  style="overflow:visible;"/>
			</clipPath>
			<polygon class="st11" points="1783.22,1511.18 1274.83,1302.03 1353.02,813.02 1861.41,1022.17 			"/>
		</g>
	</g>
</g>
<g>
	<circle class="st12" cx="1280.06" cy="800.13" r="392.87"/>
	<g>
		<g>
			<defs>
				<ellipse id="SVGID_5_" cx="1291.06" cy="800.13" rx="381.85" ry="382.67"/>
			</defs>
			<clipPath id="SVGID_6_">
				<use xlink:href="#SVGID_5_"  style="overflow:visible;"/>
			</clipPath>
			<polygon class="st13" points="1833.82,1313.7 1184.6,1030.87 1394.78,552.16 2044,834.99 			"/>
		</g>
	</g>
	<g>
		<g>
			<path class="st14" d="M1386.99,1049.19h-207.82c-13.14,0-23.82-10.65-23.82-23.82V561.24c0-13.14,10.65-23.82,23.82-23.82h207.82
				c13.14,0,23.82,10.65,23.82,23.82v464.16C1410.78,1038.54,1400.13,1049.19,1386.99,1049.19z"/>
		</g>
		<g>
			<g>
				<defs>
					<rect id="SVGID_7_" x="1283.07" y="460.07" width="324.79" height="680.12"/>
				</defs>
				<clipPath id="SVGID_8_">
					<use xlink:href="#SVGID_7_"  style="overflow:visible;"/>
				</clipPath>
				<g class="st15">
					<path class="st16" d="M1386.99,1049.19h-207.82c-13.14,0-23.82-10.65-23.82-23.82V561.24c0-13.14,10.65-23.82,23.82-23.82
						h207.82c13.14,0,23.82,10.65,23.82,23.82v464.16C1410.78,1038.54,1400.13,1049.19,1386.99,1049.19z"/>
				</g>
			</g>
		</g>
		<rect x="1191.9" y="584.91" class="st17" width="182.35" height="400.62"/>
		<ellipse class="st17" cx="1283.07" cy="1011.28" rx="17.3" ry="19.79"/>
		<polygon class="st18" points="1375.27,813.79 1191.9,733 1191.9,655.93 1375.27,736.72 		"/>
		<polygon class="st18" points="1375.27,845.23 1191.9,764.42 1191.9,742.09 1375.27,822.91 		"/>
	</g>
</g>
</svg>
