<?xml version="1.0" encoding="utf-8"?>
<!-- Generator: Adobe Illustrator 24.2.0, SVG Export Plug-In . SVG Version: 6.00 Build 0)  -->
<svg version="1.1" id="Warstwa_1" xmlns="http://www.w3.org/2000/svg" xmlns:xlink="http://www.w3.org/1999/xlink" x="0px" y="0px"
	 viewBox="0 0 285.2 285.2" style="enable-background:new 0 0 285.2 285.2;" xml:space="preserve">
<style type="text/css">
	.st0{display:none;}
	.st1{display:inline;fill:#FFFFFF;stroke:#9594C8;stroke-width:20;stroke-miterlimit:10;}
	.st2{display:inline;}
	.st3{fill:#CA268F;}
	.st4{fill:#363794;}
	.st5{fill:#CDCAE5;}
	.st6{fill:#EF6596;}
	.st7{display:none;fill:#EF6596;}
	.st8{display:inline;fill:#363794;}
	.st9{clip-path:url(#SVGID_2_);fill:#333366;}
	.st10{fill:#90278E;}
	.st11{clip-path:url(#SVGID_4_);}
	.st12{fill:#CA3593;}
	.st13{fill:#B76BAB;}
	.st14{opacity:0.5;fill:#FFFFFF;}
	.st15{display:inline;fill:#624D9F;}
	.st16{display:inline;fill:#CA3593;}
	.st17{display:inline;fill:#FFFFFF;stroke:#FFFFFF;stroke-width:3;stroke-miterlimit:10;}
	.st18{clip-path:url(#SVGID_6_);fill:#FF99FF;stroke:#FF99FF;stroke-width:3;stroke-miterlimit:10;}
	.st19{opacity:0.75;}
	.st20{display:none;fill:#CA268F;}
	.st21{fill:#DB9EC6;}
	.st22{fill:#CA268F;stroke:#FFFFFF;stroke-miterlimit:10;}
	.st23{display:inline;fill:#FFFFFF;}
	.st24{display:inline;fill:#22205F;}
	.st25{opacity:0.8;}
	.st26{display:inline;fill:url(#SVGID_7_);stroke:#9E1F63;stroke-width:2;stroke-miterlimit:10;}
	.st27{display:inline;fill:url(#SVGID_8_);stroke:#9E1F63;stroke-width:2;stroke-miterlimit:10;}
	.st28{display:inline;stroke:#9E1F63;stroke-miterlimit:10;}
	.st29{display:inline;fill:#666667;stroke:#9E1F63;stroke-miterlimit:10;}
	.st30{display:inline;fill:url(#SVGID_9_);stroke:#9E1F63;stroke-width:2;stroke-miterlimit:10;}
	.st31{display:inline;fill:url(#SVGID_10_);stroke:#9E1F63;stroke-width:2;stroke-miterlimit:10;}
	.st32{clip-path:url(#SVGID_12_);fill:#0E1030;}
	.st33{display:inline;fill:none;}
	.st34{display:inline;fill:#972169;}
	.st35{font-family:'GujaratiSangamMN';}
	.st36{font-size:196.6027px;}
	.st37{display:inline;fill:#EF6596;}
	.st38{display:inline;fill:#CDCAE5;}
	.st39{clip-path:url(#SVGID_14_);fill:#9594C8;}
	.st40{fill:#22205F;stroke:#FFFFFF;stroke-miterlimit:10;}
	.st41{fill:#6666AD;stroke:#FFFFFF;stroke-miterlimit:10;}
	.st42{fill:none;stroke:#FFFFFF;stroke-miterlimit:10;}
	.st43{opacity:0.3;fill:none;stroke:#FFFFFF;stroke-miterlimit:10;}
	.st44{fill:#EB008B;stroke:#EB008B;stroke-width:0.75;stroke-miterlimit:10;}
	.st45{clip-path:url(#SVGID_16_);fill:#972169;}
	.st46{fill:#FFFFFF;}
	.st47{fill:#22205F;}
	.st48{fill:#333366;stroke:#333366;stroke-width:0.75;stroke-miterlimit:10;}
	.st49{fill:#22205F;stroke:#22205F;stroke-width:0.75;stroke-miterlimit:10;}
	.st50{fill:#FFFFFF;stroke:#22205F;stroke-width:0.75;stroke-miterlimit:10;}
	.st51{fill:#972169;}
	.st52{fill:#333366;}
</style>
<g class="st0">
	<path class="st1" d="M204.5,256.7H80.6c-16.3,0-29.5-13.2-29.5-29.5V57.6c0-16.3,13.2-29.5,29.5-29.5h123.9
		c16.3,0,29.5,13.2,29.5,29.5v169.7C234,243.5,220.8,256.7,204.5,256.7z"/>
	<g class="st2">
		<g>
			<path class="st3" d="M76.5,50.2h-7c-2.9,0-2.9,4.4,0,4.4h7C79.4,54.6,79.4,50.2,76.5,50.2z"/>
			<path class="st3" d="M74.7,52.4c-0.3,24.4-0.6,48.7-0.9,73.1c0,2.9,4.4,2.9,4.4,0c0.3-24.4,0.6-48.7,0.9-73.1
				C79.2,49.6,74.8,49.6,74.7,52.4z"/>
			<path class="st3" d="M76.3,123.7c-2.4-0.1-4.8-0.1-7.2-0.2c-2.9-0.1-2.9,4.4,0,4.4c2.4,0.1,4.8,0.1,7.2,0.2
				C79.2,128.3,79.2,123.8,76.3,123.7z"/>
			<path class="st3" d="M90,52.9v72.2c0,2.9,4.4,2.9,4.4,0V52.9C94.4,50,90,50,90,52.9z"/>
			<path class="st3" d="M118.5,86.9H99.6c-2.9,0-2.9,4.4,0,4.4h18.9C121.4,91.4,121.4,86.9,118.5,86.9z"/>
			<path class="st3" d="M115.3,55c0,22.5,0,44.9-0.1,67.4c0,2.9,4.4,2.9,4.4,0c0-22.5,0-44.9,0.1-67.4
				C119.7,52.2,115.3,52.2,115.3,55z"/>
			<path class="st3" d="M117.6,52c-8.1-1.4-16.3-1.9-24.5-1.3c-2.8,0.2-2.9,4.7,0,4.4c7.8-0.6,15.6-0.2,23.4,1.1
				C119.2,56.8,120.4,52.5,117.6,52z"/>
			<path class="st3" d="M132.3,68.9c-0.6-8.5-6.6-16-15.4-16.8c-2.8-0.3-2.8,4.2,0,4.4c7,0.7,11.1,7.6,11,14.1
				c-0.2,7.4-4.9,13.5-10.4,18c-2.2,1.8,0.9,4.9,3.1,3.1C127.5,86.2,132.9,78.1,132.3,68.9z"/>
			<path class="st3" d="M117.2,123.2H92c-2.9,0-2.9,4.4,0,4.4h25.2C120.1,127.6,120.1,123.2,117.2,123.2z"/>
			<path class="st3" d="M119.3,88.5c-2.8-0.8-3.9,3.5-1.2,4.3c6.6,1.9,11.5,8.4,11.4,15.3c-0.1,6.9-5.3,13.2-11.9,15
				c-2.8,0.7-1.6,5,1.2,4.3c8.5-2.3,15-10.4,15.1-19.3C134.1,99.2,127.8,91,119.3,88.5z"/>
		</g>
		<g>
			<path class="st4" d="M156.6,50.1h-8c-2.9,0-2.9,4.4,0,4.4h8C159.4,54.5,159.4,50.1,156.6,50.1z"/>
			<path class="st4" d="M177.2,85.4c-6.2-11.4-12.4-22.7-18.5-34.1c-1.4-2.5-5.2-0.3-3.8,2.2c6.2,11.4,12.4,22.7,18.5,34.1
				C174.8,90.2,178.6,87.9,177.2,85.4z"/>
			<path class="st4" d="M172.8,87.8v37.4c0,2.9,4.4,2.9,4.4,0V87.8C177.3,84.9,172.8,84.9,172.8,87.8z"/>
			<path class="st4" d="M175,123.7h-8c-2.9,0-2.9,4.4,0,4.4h8C177.9,128.1,177.9,123.7,175,123.7z"/>
			<path class="st4" d="M176.9,50.1h-4.7c-2.9,0-2.9,4.4,0,4.4h4.7C179.7,54.5,179.8,50.1,176.9,50.1z"/>
			<path class="st4" d="M190,81.9c-5-9.6-10.6-20.3-15.6-29.9c-1.3-2.5-5.2-0.3-3.8,2.2c5,9.6,10.6,20.3,15.6,29.9
				C187.5,86.7,191.3,84.5,190,81.9z"/>
			<path class="st4" d="M216.1,50.7c-4.1-0.1-8.2-0.2-12.3-0.4c-2.9-0.1-2.9,4.4,0,4.4c4.1,0.1,8.2,0.2,12.3,0.4
				C218.9,55.2,218.9,50.7,216.1,50.7z"/>
			<path class="st4" d="M207.7,52.4c-6.4,9.6-12.8,19.3-19.2,28.9c-1.6,2.4,2.3,4.6,3.8,2.2c6.4-9.6,12.8-19.3,19.2-28.9
				C213.1,52.2,209.3,50,207.7,52.4z"/>
			<path class="st4" d="M187,83.4v41.4c0,2.9,4.4,2.9,4.4,0V83.4C191.4,80.5,187,80.5,187,83.4z"/>
			<path class="st4" d="M197.2,123h-8c-2.9,0-2.9,4.4,0,4.4h8C200,127.4,200,123,197.2,123z"/>
		</g>
		<g>
			<path class="st5" d="M158.4,142.4h-6.8c-2.9,0-2.9,4.4,0,4.4h6.8C161.2,146.9,161.2,142.4,158.4,142.4z"/>
			<path class="st5" d="M158.1,215.4h-7.3c-2.9,0-2.9,4.4,0,4.4h7.3C161,219.9,161,215.4,158.1,215.4z"/>
			<path class="st5" d="M156.4,144.9v72.5c0,2.9,4.4,2.9,4.4,0v-72.5C160.8,142,156.4,142,156.4,144.9z"/>
			<path class="st5" d="M193.1,168.2v26.9c0,2.9,4.4,2.9,4.4,0v-26.9C197.5,165.3,193.1,165.3,193.1,168.2z"/>
			<path class="st5" d="M194.2,179.2h-20.3c-2.9,0-2.9,4.4,0,4.4h20.3C197,183.6,197,179.2,194.2,179.2z"/>
			<path class="st5" d="M208.2,144.8v20.1c0,2.9,4.4,2.9,4.4,0v-20.1C212.7,141.9,208.2,141.9,208.2,144.8z"/>
			<path class="st5" d="M207.2,196.9v21c0,2.9,4.4,2.9,4.4,0v-21C211.6,194,207.2,194,207.2,196.9z"/>
			<path class="st5" d="M208.9,215.7H171c-2.9,0-2.9,4.4,0,4.4h37.9C211.8,220.1,211.8,215.7,208.9,215.7z"/>
			<path class="st5" d="M168.9,179.3V217c0,2.9,4.4,2.9,4.4,0v-37.6C173.3,176.5,168.9,176.5,168.9,179.3z"/>
			<path class="st5" d="M168.9,144.9V179c0,2.9,4.4,2.9,4.4,0v-34C173.3,142.1,168.9,142,168.9,144.9z"/>
			<path class="st5" d="M210.4,142.5h-39.2c-2.9,0-2.9,4.4,0,4.4h39.2C213.2,146.9,213.2,142.5,210.4,142.5z"/>
		</g>
		<g>
			<g>
				<g>
					<path class="st6" d="M81.1,143.3h-6.7c-2.9,0-2.9,4.4,0,4.4h6.7C83.9,147.8,83.9,143.3,81.1,143.3z"/>
					<path class="st6" d="M79,145.7v73c0,2.9,4.4,2.9,4.4,0v-73C83.5,142.8,79,142.8,79,145.7z"/>
					<path class="st6" d="M81,216.8c-2.6-0.1-5.1-0.1-7.7-0.2c-2.9-0.1-2.9,4.4,0,4.4c2.6,0.1,5.1,0.1,7.7,0.2
						C83.9,221.4,83.9,216.9,81,216.8z"/>
					<path class="st6" d="M94,145.3v73c0,2.9,4.4,2.9,4.4,0v-73C98.4,142.4,94,142.4,94,145.3z"/>
					<path class="st6" d="M126.5,151.6c-8.7-6.1-19.3-9.1-29.9-8.6c-2.8,0.1-2.9,4.6,0,4.4c9.9-0.5,19.6,2.3,27.7,8
						C126.6,157.1,128.8,153.2,126.5,151.6z"/>
					<path class="st7" d="M130.6,235.1c-8.9,4.4-18.3,7.7-28.2,7.6c-2.9,0-2.5,5,0.3,4.8c10.7-0.7,20.3-4,30.5-8.2
						C135.7,238.3,133.2,233.8,130.6,235.1z"/>
					<path class="st6" d="M123.1,153.6v56.5c0,2.9,4.4,2.9,4.4,0v-56.5C127.6,150.7,123.1,150.7,123.1,153.6z"/>
					<path class="st6" d="M139.8,181.3c-0.5-11.7-5.8-25.9-15.2-30.8c-2.5-1.3-3.2,0.8-1.2,2.8c7.2,7.3,11.3,17.2,11.8,27.5
						c0.3,5.5-0.5,11.1-2.3,16.3c-1.6,4.7-4.4,8.8-8.5,11.8c-2.3,1.7-0.7,4.8,1.9,3.4C136.2,207,140.2,192.6,139.8,181.3z"/>
				</g>
				<path class="st6" d="M126.6,212.1c-8.7,6.1-19.3,9.1-29.9,8.6c-2.8-0.1-2.9-4.6,0-4.4c9.9,0.5,19.6-2.3,27.7-8
					C126.7,206.6,128.9,210.4,126.6,212.1z"/>
			</g>
		</g>
	</g>
</g>
<g class="st0">
	<circle class="st8" cx="144" cy="142.4" r="138"/>
	<g class="st2">
		<defs>
			<ellipse id="SVGID_1_" cx="147.9" cy="142.4" rx="134.1" ry="134.4"/>
		</defs>
		<clipPath id="SVGID_2_">
			<use xlink:href="#SVGID_1_"  style="overflow:visible;"/>
		</clipPath>
		<polygon class="st9" points="338.5,322.8 110.5,223.5 184.3,55.3 412.3,154.7 		"/>
	</g>
	<g class="st2">
		<g>
			<path class="st10" d="M178.9,229.9h-67.7c-6.1,0-11-4.9-11-11V61.1c0-6.1,4.9-11,11-11h67.7c6.1,0,11,4.9,11,11v157.8
				C189.9,225,185,229.9,178.9,229.9z"/>
		</g>
		<g>
			<defs>
				<rect id="SVGID_3_" x="145.1" y="23" width="114.1" height="238.9"/>
			</defs>
			<clipPath id="SVGID_4_">
				<use xlink:href="#SVGID_3_"  style="overflow:visible;"/>
			</clipPath>
			<g class="st11">
				<path class="st12" d="M178.9,229.9h-67.7c-6.1,0-11-4.9-11-11V61.1c0-6.1,4.9-11,11-11h67.7c6.1,0,11,4.9,11,11v157.8
					C189.9,225,185,229.9,178.9,229.9z"/>
			</g>
		</g>
		<rect x="113" y="66.8" class="st13" width="64.1" height="140.7"/>
		<ellipse class="st13" cx="145.1" cy="216.6" rx="6.1" ry="7"/>
		<polygon class="st14" points="177.4,147.2 113,118.8 113,91.8 177.4,120.1 		"/>
		<polygon class="st14" points="177.4,158.2 113,129.9 113,122 177.4,150.4 		"/>
	</g>
</g>
<g class="st0">
	<path class="st15" d="M107.2,81.3"/>
	<circle class="st16" cx="142.4" cy="136.1" r="123.1"/>
	<path class="st17" d="M158.5,201.9c-0.3,7.1,6.5,10.6,20.5,10.6v13.4h-73.1v-13.4c13.5,0,20.3-3.5,20.3-10.6v-71.7
		c0-7.2-6.8-10.9-20.3-10.9v-13.4h52.6V201.9z M161.3,66.2c0,5.5-1.9,10.3-5.8,14.3c-3.9,4-8.6,6-14.3,6c-2.8,0-5.5-0.5-7.9-1.7
		c-2.4-1.1-4.6-2.6-6.4-4.4c-1.8-1.8-3.3-3.9-4.4-6.4c-1.1-2.4-1.7-5.1-1.7-7.9c0-5.7,2-10.4,6-14.3c4-3.9,8.8-5.8,14.3-5.8
		c5.5,0,10.2,2,14.2,5.9C159.3,56,161.3,60.7,161.3,66.2z"/>
	<g class="st2">
		<defs>
			<circle id="SVGID_5_" cx="248.9" cy="148.5" r="123.1"/>
		</defs>
		<clipPath id="SVGID_6_">
			<use xlink:href="#SVGID_5_"  style="overflow:visible;"/>
		</clipPath>
		<path class="st18" d="M158.7,202c-0.3,7.1,6.5,10.6,20.5,10.6V226h-73.1v-13.4c13.5,0,20.3-3.5,20.3-10.6v-71.7
			c0-7.2-6.8-10.9-20.3-10.9v-13.4h52.6V202z M161.5,66.3c0,5.5-1.9,10.3-5.8,14.3c-3.9,4-8.6,6-14.3,6c-2.8,0-5.5-0.5-7.9-1.7
			c-2.4-1.1-4.6-2.6-6.4-4.4c-1.8-1.8-3.3-3.9-4.4-6.4c-1.1-2.4-1.7-5.1-1.7-7.9c0-5.7,2-10.4,6-14.3c4-3.9,8.8-5.8,14.3-5.8
			c5.5,0,10.2,2,14.2,5.9C159.6,56.1,161.5,60.8,161.5,66.3z"/>
	</g>
</g>
<g class="st0">
	<circle class="st8" cx="146.1" cy="142.9" r="130.9"/>
	<g class="st19">
		
			<image style="display:inline;overflow:visible;" width="178" height="169" xlink:href="E8F12CF347885D8E.png"  transform="matrix(1 0 0 1 426 489)">
		</image>
	</g>
	<g class="st2">
		<g>
			<g>
				<path class="st3" d="M145.4,206.2c1-0.1,2.1-0.2,3.1-0.2c0.3,0,0.6,0,0.9,0.1c0.4,0,0.7,0,1.1,0.1
					c12.1-35.1,55.7-79.4,55.7-107.6c0-32.9-26.7-59.6-59.6-59.6c-32.9,0-59.6,26.7-59.6,59.6c0,28.5,44.5,70.8,57.2,107.7
					C144.6,206.2,145,206.2,145.4,206.2z"/>
				<path class="st3" d="M114.8,156.1v32.1c0,9.9,8,18,18,18h13.8c0.7,0,1.3-0.1,2-0.1c0.3,0,0.6,0,0.9,0.1c0,0,0,0,0,0l10.9,0
					c9.9,0,18-8,18-18v-32.1H114.8z"/>
				<path class="st3" d="M171.2,219.5h-49.3c-1.6,0-2.9-1.3-2.9-2.9v-5.4c0-1.6,1.3-2.9,2.9-2.9h49.3c1.6,0,2.9,1.3,2.9,2.9v5.4
					C174.1,218.2,172.8,219.5,171.2,219.5z"/>
				<path class="st3" d="M166.2,230.2H127c-1.3,0-2.3-1-2.3-2.3v-4.3c0-1.3,1-2.3,2.3-2.3h39.2c1.3,0,2.3,1,2.3,2.3v4.3
					C168.5,229.2,167.5,230.2,166.2,230.2z"/>
				<g>
					<path class="st3" d="M162.4,240.2h-31.7c-1.2,0-2.1-0.9-2.1-2.1v-3.9c0-1.2,0.9-2.1,2.1-2.1h31.7c1.2,0,2.1,0.9,2.1,2.1v3.9
						C164.5,239.3,163.6,240.2,162.4,240.2z"/>
					<path class="st20" d="M280.8,289.2h-14.7c-2.4,0-4.3-1.9-4.3-4.3v-5.6c0-0.9,0.7-1.6,1.6-1.6H278c2.4,0,4.4,2,4.4,4.4v5.5
						C282.4,288.5,281.7,289.2,280.8,289.2z"/>
				</g>
			</g>
			<g>
				<path class="st21" d="M148,126.3c-0.1-0.3-0.2-0.5-0.4-0.8c-0.8-1.5-2.1-2.8-3.8-3.3c-0.3,0.2-0.6,0.5-1,0.7
					c-3.5,2.2-8.2,2-11.9,0.1c-1.1-0.6-0.1-2.2,1-1.6c1.8,0.9,3.8,1.3,5.8,1.2c1.6-0.1,3.2-0.7,4.4-1.6c0,0,0,0,0,0
					c0-0.1,0-0.1,0-0.2c0.1-0.4,0.5-0.6,1-0.7h0c0,0,0,0,0,0c0.7-0.7,1.3-1.5,1.7-2.5c1.1-2.6,0.3-5.5-1.8-7.4
					c-3.1,1.9-7.1,1.6-10.7,1.3c-0.5,0-1-0.4-1-0.9c0-0.5,0.5-1,1-0.9c2.1,0.2,4.2,0.4,6.3,0.1c1.5-0.2,3-0.7,4.1-1.6
					c1.2-0.9,1.9-2.2,2.3-3.6c0.8-2.6,0.6-5.5-1-7.7c-1.9,1.6-4.5,2.6-7.1,2.7c0,0,0,0,0,0c-0.7,0-1.3,0-2-0.1
					c-2.5-0.4-4.9-1.5-6.7-3.2c-0.9-0.9,0.5-2.2,1.4-1.3c2,2,5,3,8,2.7c5.3-0.5,9.2-5.7,7.8-10.3c-0.7-2.4-2.9-4.3-5.7-4.3
					c-2.6,0-4.8,1.9-4.5,4.3c0.1,0.5-0.5,0.9-1,0.9c-0.6,0-0.9-0.4-1-0.9c-0.3-3.1,2.4-5.6,5.5-6.1c-0.4-0.3-0.6-0.7-0.3-1.2
					c0.9-1.6,1.1-3.5,0.3-5.1c-1.1-2.5-4.5-3.9-7.1-2.5c-1.1,0.6-1.9,1.6-2,2.8c0,0.1,0,0.2,0,0.3c-0.1,0.6-0.8,1-1.5,0.7
					c-0.2-0.1-0.3-0.2-0.5-0.2c-2.3-1-5.2-1-7.5,0.1c-1.8,0.8-3.7,2.6-2.8,4.6c0,0.1,0.1,0.2,0.2,0.3l1.5,1.1c0,0,0,0,0,0l0,0
					c0.3,0.2,0.7,0.3,1,0.4c1,0.5,1.9,1.2,2.4,2.2c1,1.8,0.9,4,0.1,5.8c-0.5,1.1-1.4,1.9-1.9,3c-0.2,0.4-0.3,0.8-0.2,1.1
					c0.1,0.3,0.2,0.5,0.5,0.6c1.3,0.3,0.7,2-0.5,1.8c-1.6-0.3-2.2-1.9-2-3.2c0.3-1.4,1.6-2.4,2.2-3.7c0.8-1.7,0.8-3.9-0.7-5.2
					c-1-0.8-2.3-1.1-3.3-1.9c0,0,0,0-0.1,0c0,0,0,0,0,0l0,0l0,0c-1.6-0.1-3.2-0.1-4.8,0.1c-3.1,0.6-5.8,2.5-6.9,5.3
					c-1,2.6-0.3,5.5,1.6,7.6h0c1.3-0.1,2.7,0,4,0.2c4.6,1,8.1,4.4,11.1,7.5c0.9,0.9-0.6,2.2-1.4,1.3c-3.1-3.2-6.8-7-11.8-7.2
					c-0.5,0-1,0-1.6,0l0,0c-0.3,0.2-0.7,0.3-1,0.1l0,0c-0.9,0.2-1.8,0.5-2.6,1.1c-1.6,1.2-2.4,3-2.6,4.8c-0.5,3.8,0.5,8.6,4.6,10.5
					c0.8,0.4,1.7,0.6,2.5,0.6c0.1,0,0.2,0,0.3,0c0.3,0,0.6,0.2,0.7,0.4c0.3,0.4,0.1,1-0.4,1.2c-0.1,0-0.1,0.1-0.2,0.1
					c-2.2,1.5-3.6,3.9-3.8,6.4c-0.4,4.7,3.6,9,8.7,9.6c2.6,0.3,5.5-0.3,7.5-1.8c0.9-0.7,1.8-1.6,1.9-2.8c0.1-1-0.2-1.9-1.1-2.5
					c-0.4-0.3-0.3-1,0-1.3c0.4-0.4,1-0.3,1.4,0c1.4,1,1.8,2.7,1.6,4.2c-0.3,1.6-1.5,3-2.9,4c-1.4,1-3.1,1.6-4.9,1.9
					c0.2,0.2,0.3,0.5,0.2,0.8c-0.7,1.8-0.7,3.8,0,5.6c0.6,1.6,1.9,2.9,3.6,3.7c2,0.9,4.5,0.7,6.3-0.3c1.8-0.9,3-2.6,3.4-4.4
					c0.4-1.9-0.3-4.1-2.6-4.5c-0.5-0.1-0.8-0.7-0.7-1.1c0.2-0.5,0.7-0.7,1.2-0.6c1.5,0.2,2.8,1.2,3.5,2.4c0.6,1,0.8,2.2,0.7,3.3
					c0.3-0.1,0.6,0,0.9,0.2c2.2,1.7,4.6,3.8,7.6,3.8c2.4,0.1,4.3-1.5,5.3-3.4c0.5-0.9,0.8-2,1.1-3c0,0,0,0,0,0c0,0,0,0,0,0
					c-0.4-0.9-0.8-1.8-0.9-2.7C145.9,131.5,146.5,128.7,148,126.3z"/>
				<path class="st21" d="M186.4,95c0.6-2.8,0.2-5.8-1.4-8.3c-1.3-1.9-3.2-3.3-5.6-3.8c-2.3-0.5-4.9,0-6.5,1.5
					c-0.8,0.7-1.5,1.8-1.3,2.9c0.2,1.2,1.1,2.2,1.8,3.3c0.7,1.1,1.2,2.5,0.7,3.8c-0.4,1.2-1.5,2.1-2.9,2.1c-1.3,0-1.3-1.8,0-1.8
					c0.5,0,0.8-0.4,1-0.8c0.3-0.6,0.1-1.3-0.2-1.8c-0.7-1.4-1.9-2.5-2.2-4.1c-0.6-2.7,1.5-5.2,4.1-6.3c0.8-0.3,1.6-0.5,2.4-0.7
					c-0.7-2-2.2-3.7-4.2-4.7c-2.1-1-4.6-1.2-6.9-0.5c0.3,1,0.3,2.2-0.1,3.2c-0.2,0.5-0.7,0.8-1.2,0.6c-0.5-0.1-0.9-0.7-0.7-1.1
					c0.5-1.2,0.3-2.4-0.5-3.4c-1.5-2.1-4.6-2.1-6.7-0.8c-2.4,1.5-3.1,4.5-2.4,7c0,0.1,0,0.2,0,0.2c0,0,0,0,0,0
					c3.4,0.6,5.5,3.5,6.2,6.5c0.3,1.1-1.7,1.6-1.9,0.5c-0.3-1.4-1-2.9-2.1-3.9c-1-0.9-2.6-1.5-4-1.2c-2.7,0.5-4,3.3-4.6,5.5
					c-0.4,1.4-0.4,2.8,0.1,4.2c0.4,1.1,1.2,2,2.1,2.7c2,1.6,4.7,2.2,7.3,1.9c3.1-0.3,6-1.7,8.5-3.3c0.4-0.3,1.1-0.1,1.4,0.3
					c0.3,0.5,0.1,1-0.4,1.2c-2.3,1.5-4.9,2.8-7.6,3.3c-0.6,0.1-1.2,0.2-1.8,0.3c-0.6,0-1.3,0.1-1.9,0c-2.1-0.1-4.2-0.8-5.9-1.9
					c0,0,0,0,0,0c-0.9,1.2-1.4,2.7-1.4,4.2c0,2.7,1.4,5.3,3.9,6.7c2.5,1.3,5.7,1.6,8.3,0.4c1.1-0.5,2.2,1.1,1,1.6
					c-1.8,0.8-3.8,1.2-5.8,0.9c-1.8-0.2-3.6-0.8-5-1.7c-0.9,1.6-1.7,3.2-1.7,5c-0.1,2.8,1.3,5.8,4,7.2c2.6,1.4,6.3,1.2,8.6-0.7
					c0.9-0.8,2.4,0.5,1.4,1.3c-1.6,1.4-3.8,2.1-6,2.1c-2.1,0-4.1-0.6-5.7-1.6c0,0,0,0,0,0c0,0-0.1,0-0.1,0.1c-1.7,0.8-3.1,2-4.1,3.4
					c0,0,0,0,0,0c0.7,2.4,0.4,5,0,7.4c-0.2,0.9-0.4,1.9-0.6,2.8c0,0,0,0,0,0c0,0,0,0,0,0c0.7,1.2,1.7,2.3,2.9,3.2
					c3.6,2.7,8.8,2.8,12.7,0.7c0.3-0.2,0.6-0.3,0.9-0.5c0.3-0.2,0.7-0.2,1,0h0c0.1,0.1,0.3,0.2,0.4,0.3c0.2,0.2,0.2,0.5,0.1,0.7
					c0.8,1.3,2.3,2,3.9,2.3c1.9,0.3,3.9-0.2,5.5-1.2c1.7-1,3.2-2.4,3.9-4.1c0.4-0.8,0.5-1.8,0.4-2.7c0,0,0,0,0,0
					c-1.9,0-3.7-0.5-5.4-1.4c-1.9-1-3.6-2.7-4-4.7c-0.4-2,0.4-4.1,2.3-5.2c1.1-0.6,2.1,0.9,1,1.6c-1.5,0.9-1.7,2.9-1,4.2
					c0.9,1.7,2.7,2.8,4.6,3.3c0.6,0.2,1.1,0.3,1.7,0.3c0,0,0,0,0,0c0,0,0,0,0,0c0.3,0,0.5,0,0.8,0.1c0.4,0,0.7,0,1.1,0
					c0.1,0,0.2,0,0.4,0c0,0,0,0,0,0c0,0,0,0,0,0c2.3-0.2,4.6-1.2,6.3-2.8c2.5-2.2,4.3-5.9,3.6-9.1c-0.4-1.8-1.6-3-3.2-4
					c-1.7-1-3.7-1.8-5.7-2.3c-1.8-0.5-3.9-0.6-5.6,0.3c-1.3,0.7-2.3,2.3-1.6,3.6c0.2,0.5,0.2,1-0.4,1.2c-0.4,0.2-1.2,0.1-1.4-0.3
					c-1.1-2.3,0-4.8,2.3-6.1c2.4-1.3,5.4-1.1,7.9-0.3c0.8,0.3,1.6,0.6,2.4,0.9c0-0.1,0.1-0.2,0.2-0.2c0.1-0.1,0.2-0.2,0.3-0.2
					c0.1-0.1,0.2-0.1,0.4-0.1c0.6-0.1,1.1-0.1,1.7-0.2c0.1-0.1,0.3-0.1,0.5-0.1c3-0.4,5.5-2.3,6.7-4.7c1.2-2.3,1-5-0.2-7.2
					c-1.3-2.4-3.6-4.2-6.4-4.9c-2.9-0.7-6.2-0.4-8.8,1.1c-2.4,1.3-4.4,3.6-4.1,6.3c0,0.5-0.5,0.9-1,0.9c-0.6,0-1-0.4-1-0.9
					c-0.4-3.7,2.7-6.9,6.2-8.4c2.8-1.2,6-1.5,8.9-0.8C186.4,95.3,186.4,95.1,186.4,95z"/>
			</g>
			<path class="st22" d="M102.1,81.4c0-12.3,9.1-22.3,20.3-22.3"/>
		</g>
		<path class="st3" d="M151.6,246.6h-10c-0.8,0-1.4-0.6-1.4-1.4v-10c0-0.8,0.6-1.4,1.4-1.4h10c0.8,0,1.4,0.6,1.4,1.4v10
			C153,246,152.4,246.6,151.6,246.6z"/>
	</g>
</g>
<g class="st0">
	<polygon class="st23" points="97.1,236.7 97.1,236.7 97.1,236.7 97.1,236.7 	"/>
	<circle class="st24" cx="138.9" cy="144.8" r="128.7"/>
	<g class="st25">
		
			<image style="display:inline;overflow:visible;" width="154" height="153" xlink:href="E8F12CF347885D92.png"  transform="matrix(1 0 0 1 398 211)">
		</image>
	</g>
	<linearGradient id="SVGID_7_" gradientUnits="userSpaceOnUse" x1="26.7225" y1="116.4183" x2="126.731" y2="116.4183">
		<stop  offset="0" style="stop-color:#231F20"/>
		<stop  offset="3.073871e-02" style="stop-color:#808184;stop-opacity:0.97"/>
		<stop  offset="0.2776" style="stop-color:#FFFFFF;stop-opacity:0.89"/>
		<stop  offset="1" style="stop-color:#FFFFFF"/>
	</linearGradient>
	<polygon class="st26" points="126.7,126.6 50,159.9 26.7,106.3 103.4,72.9 	"/>
	<linearGradient id="SVGID_8_" gradientUnits="userSpaceOnUse" x1="38.3861" y1="129.8321" x2="126.731" y2="129.8321">
		<stop  offset="0" style="stop-color:#2483C5"/>
		<stop  offset="3.073871e-02" style="stop-color:#BE1E2D;stop-opacity:0.97"/>
		<stop  offset="0.2776" style="stop-color:#C02D33;stop-opacity:0.8902"/>
		<stop  offset="0.5395" style="stop-color:#D3797D;stop-opacity:0.5676"/>
		<stop  offset="0.8558" style="stop-color:#E8CFD1;stop-opacity:0.1777"/>
		<stop  offset="1" style="stop-color:#F1F1F2;stop-opacity:0"/>
	</linearGradient>
	<polygon class="st27" points="126.7,126.6 50,159.9 38.4,133.1 115.1,99.7 	"/>
	<path class="st28" d="M167.8,217.7l-1.5,0.6c-0.6,0.3-1.3,0-1.6-0.6L102.2,73.9c-0.3-0.6,0-1.3,0.6-1.6l1.5-0.6
		c0.6-0.3,1.3,0,1.6,0.6l62.5,143.8C168.7,216.7,168.4,217.4,167.8,217.7z"/>
	<path class="st29" d="M166.9,218.1l-0.7,0.3c-0.3,0.1-0.7,0-0.8-0.3l-63-144.9c-0.1-0.3,0-0.7,0.3-0.8l0.7-0.3
		c0.3-0.1,0.7,0,0.8,0.3l63,144.9C167.4,217.6,167.2,217.9,166.9,218.1z"/>
	<linearGradient id="SVGID_9_" gradientUnits="userSpaceOnUse" x1="150.9832" y1="115.6292" x2="254.7934" y2="115.6292">
		<stop  offset="0" style="stop-color:#2483C5"/>
		<stop  offset="3.073871e-02" style="stop-color:#1B75BB;stop-opacity:0.97"/>
		<stop  offset="0.4578" style="stop-color:#85B5DB;stop-opacity:0.9832"/>
		<stop  offset="0.8316" style="stop-color:#DDEAF5;stop-opacity:0.9948"/>
		<stop  offset="1" style="stop-color:#FFFFFF"/>
	</linearGradient>
	<polygon class="st30" points="151,125 231.5,160 254.8,106.3 174.3,71.3 	"/>
	<linearGradient id="SVGID_10_" gradientUnits="userSpaceOnUse" x1="151.2247" y1="129.043" x2="243.3713" y2="129.043">
		<stop  offset="0" style="stop-color:#F9EC31"/>
		<stop  offset="0.3698" style="stop-color:#F9EC31;stop-opacity:0.97"/>
		<stop  offset="0.6163" style="stop-color:#FBF487;stop-opacity:0.9817"/>
		<stop  offset="0.8799" style="stop-color:#FEFCDD;stop-opacity:0.9943"/>
		<stop  offset="1" style="stop-color:#FFFFFF"/>
	</linearGradient>
	<polygon class="st31" points="151.2,125 231.7,160 243.4,133.1 162.9,98.1 	"/>
	<path class="st28" d="M110.2,216.1l1.5,0.6c0.6,0.3,1.3,0,1.6-0.6l62.5-143.8c0.3-0.6,0-1.3-0.6-1.6l-1.5-0.6
		c-0.6-0.3-1.3,0-1.6,0.6l-62.5,143.8C109.3,215.1,109.6,215.8,110.2,216.1z"/>
	<path class="st29" d="M110.5,216.2l0.7,0.3c0.3,0.1,0.7,0,0.8-0.3l63-144.9c0.1-0.3,0-0.7-0.3-0.8l-0.7-0.3c-0.3-0.1-0.7,0-0.8,0.3
		l-63,144.9C110.1,215.7,110.2,216.1,110.5,216.2z"/>
</g>
<g class="st0">
	<ellipse class="st24" cx="141.5" cy="138.4" rx="135.5" ry="132.4"/>
	<g class="st2">
		<defs>
			<ellipse id="SVGID_11_" cx="141.5" cy="138.4" rx="135.5" ry="132.4"/>
		</defs>
		<clipPath id="SVGID_12_">
			<use xlink:href="#SVGID_11_"  style="overflow:visible;"/>
		</clipPath>
		<polygon class="st32" points="352.6,386.3 128.9,246.3 145.7,38.8 369.4,178.7 		"/>
	</g>
	<rect x="67.4" y="50.9" class="st33" width="433.2" height="392.7"/>
	<text transform="matrix(1.0232 0 0 1 67.3875 216.3537)" class="st34 st35 st36">$</text>
	<rect x="76.4" y="50.9" class="st33" width="433.2" height="392.7"/>
	<text transform="matrix(1.0232 0 0 1 76.4251 216.3537)" class="st37 st35 st36">$</text>
</g>
<g class="st0">
	<circle class="st38" cx="145.4" cy="142.6" r="126.6"/>
	<g class="st2">
		<defs>
			<circle id="SVGID_13_" cx="145.4" cy="142.6" r="126.6"/>
		</defs>
		<clipPath id="SVGID_14_">
			<use xlink:href="#SVGID_13_"  style="overflow:visible;"/>
		</clipPath>
		<polygon class="st39" points="224,270.2 89.2,207.4 184.4,90.7 320,152.5 		"/>
	</g>
	<g class="st2">
		<path class="st40" d="M183,90.7h-25.6v56.2h63.3l-28.7-51C190.2,92.7,186.7,90.7,183,90.7z"/>
		<path class="st40" d="M231.3,190.3h-73v-54.9h63.1c7,0,12.7,5.7,12.7,12.7v39.5C234,189.1,232.8,190.3,231.3,190.3z"/>
		<path class="st40" d="M146.2,190.3H68.7c-6.6,0-12-5.4-12-12V86c0-6.6,5.4-12,12-12h77.4c6.6,0,12,5.4,12,12v92.4
			C158.2,185,152.8,190.3,146.2,190.3z"/>
		<circle class="st41" cx="102.7" cy="190.3" r="21"/>
		<circle class="st41" cx="177" cy="190.3" r="21"/>
		<line class="st42" x1="177" y1="90.7" x2="177" y2="125.7"/>
		<line class="st42" x1="176.2" y1="125.7" x2="208.8" y2="125.7"/>
		<line class="st43" x1="234" y1="153.9" x2="192.9" y2="153.9"/>
		<line class="st42" x1="56.7" y1="153.9" x2="158.2" y2="153.9"/>
		<line class="st43" x1="57" y1="108.2" x2="94.2" y2="108.2"/>
		<circle class="st41" cx="102.7" cy="190.3" r="10.8"/>
		<circle class="st41" cx="177" cy="190.3" r="10.8"/>
	</g>
</g>
<g>
	<circle class="st12" cx="142.6" cy="142.2" r="136.4"/>
	<polygon class="st44" points="147.4,100.4 137.1,100.4 137.4,98.9 147.2,98.9 	"/>
	<g>
		<defs>
			<circle id="SVGID_15_" cx="142.6" cy="142.2" r="136.4"/>
		</defs>
		<clipPath id="SVGID_16_">
			<use xlink:href="#SVGID_15_"  style="overflow:visible;"/>
		</clipPath>
		<polygon class="st45" points="330.5,335.5 142,256.3 223.8,74.9 373.2,135.4 		"/>
	</g>
	<polygon class="st46" points="142.7,57.4 61.5,74.9 85.9,214.3 199.4,214.3 223.8,74.9 	"/>
	<polygon class="st47" points="160.6,74.9 124.4,74.9 137.4,99 147.2,99 	"/>
	<g>
		<polygon class="st48" points="187.1,56.3 142.2,75.5 170.7,113.4 199,69.6 		"/>
		<polygon class="st49" points="97.1,56.3 142,75.5 113.4,113.3 85.1,69.6 		"/>
	</g>
	<polygon class="st50" points="142.9,74.9 184.7,56.2 100.3,56.2 	"/>
	<polygon class="st47" points="142,256.3 160.6,237.8 147.4,100.4 137.1,100.4 123.2,237.8 	"/>
	<polygon class="st51" points="159.2,223.4 168.8,214.3 158.3,214.3 	"/>
	<polygon class="st52" points="142,256.3 160.6,237.8 147.4,100.4 142.3,100.4 142.1,238.4 	"/>
	<polygon class="st52" points="160.6,74.9 142.2,75.5 142.3,99 147.2,99 	"/>
</g>
</svg>
